# xmcd CD database file
#
# Track frame offsets:
#	150
#	11075
#	29910
#	50737
#	77185
#	93537
#	113962
#	128275
#	139937
#	156332
#	171350
#	187070
#	206845
#	227487
#	242182
#	259002
#
# Disc length: 3684 seconds
#
# Revision: 2
# Processed by: cddbd v1.5.1PL0 Copyright (c) Steve Scherf et al.
# Submitted via: CDex 1.51
#
DISCID=ea0e6210
DTITLE=Catfish Hodge - Eyewittness Blues
DYEAR=1979
DGENRE=Blues
TTITLE0=Blues Got the World
TTITLE1=Long Night
TTITLE2=Elmo's Blues
TTITLE3=Cold, Cold
TTITLE4=Louisiana Woman
TTITLE5=Bad News, Good News
TTITLE6=Every Day it Grows and Grows
TTITLE7=What the Woman Do
TTITLE8=Going Down Slow
TTITLE9=I-Re-peat
TTITLE10=Black Cadillac
TTITLE11=Record Executive Blues
TTITLE12=To the Left
TTITLE13=So Tough
TTITLE14=Down Over the Border
TTITLE15=Can I Go Home
EXTD=YEAR: 1979
EXTT0=
EXTT1=
EXTT2=
EXTT3=
EXTT4=
EXTT5=
EXTT6=
EXTT7=
EXTT8=
EXTT9=
EXTT10=
EXTT11=
EXTT12=
EXTT13=
EXTT14=
EXTT15=
PLAYORDER=
